<svg width="1024" height="1024" viewBox="0 0 256 256" xmlns="http://www.w3.org/2000/svg">
	<style>
		:root {
			--color-0: black;
			--color-1: white;
		}
	</style>

	<defs>
		<pattern id="pat0" width="2" height="2" patternUnits="userSpaceOnUse">
			<rect width="2" height="2" fill="var(--color-0)" />
			<rect width="1" height="1" fill="var(--color-1)" />
		</pattern>

		<pattern id="pat1" width="2" height="2" patternUnits="userSpaceOnUse">
			<rect width="2" height="2" fill="var(--color-0)" />
			<rect width="1" height="1" fill="var(--color-1)" />
			<rect width="1" height="1" x="1" y="1" fill="var(--color-1)" />
		</pattern>

		<pattern id="pat2" width="4" height="4" patternUnits="userSpaceOnUse">
			<rect width="4" height="4" fill="var(--color-0)" />
			<rect width="1" height="1" fill="var(--color-1)" />
		</pattern>
		
		<pattern id="pat3" width="4" height="4" patternUnits="userSpaceOnUse">
			<rect width="4" height="4" fill="var(--color-0)" />
			<rect width="1" height="1" fill="var(--color-1)" />
			<rect width="1" height="1" x="2" y="2"  fill="var(--color-1)" />
		</pattern>

		<pattern id="pat4" width="4" height="4" patternUnits="userSpaceOnUse">
			<rect width="4" height="4" fill="var(--color-0)" />
			<rect width="1" height="1" y="1" fill="var(--color-1)" />
			<rect width="1" height="1" y="3" fill="var(--color-1)" />
			<rect width="1" height="1" x="2" y="0"  fill="var(--color-1)" />
			<rect width="1" height="1" x="2" y="2"  fill="var(--color-1)" />
		</pattern>
		
		<pattern id="pat5" width="4" height="4" patternUnits="userSpaceOnUse">
			<rect width="4" height="4" fill="var(--color-0)" />
			<rect width="1" height="1" fill="var(--color-1)" />
			<rect width="1" height="1" x="2" y="1"  fill="var(--color-1)" />
			<rect width="1" height="1" x="1" y="2"  fill="var(--color-1)" />
			<rect width="1" height="1" x="3" y="3"  fill="var(--color-1)" />
		</pattern>
		
		<pattern id="pat6" width="4" height="4" patternUnits="userSpaceOnUse">
			<rect width="4" height="4" fill="var(--color-0)" />
			<rect width="3" height="1" fill="var(--color-1)" />
			<rect width="1" height="1" y="2" fill="var(--color-1)" />
			<rect width="2" height="1" x="2" y="2" fill="var(--color-1)" />
		</pattern>
		
		<pattern id="pat7" width="4" height="4" patternUnits="userSpaceOnUse">
			<rect width="4" height="4" fill="var(--color-1)" />
			<rect width="4" height="1" fill="var(--color-0)" />
			<rect width="1" height="4" fill="var(--color-0)" />
		</pattern>
		<pattern id="pat8" width="4" height="4" patternUnits="userSpaceOnUse">
			<rect width="4" height="4" fill="var(--color-1)" />
			<rect width="1" height="1" fill="var(--color-0)" />
			<rect width="1" height="1" x="1" y="1" fill="var(--color-0)" />
			<rect width="1" height="1" x="2" y="2" fill="var(--color-0)" />
			<rect width="1" height="1" x="3" y="3" fill="var(--color-0)" />
		</pattern>
		
		<pattern id="pat9" width="4" height="4" patternUnits="userSpaceOnUse">
			<rect width="4" height="4" fill="var(--color-1)" />
			<rect width="1" height="1" y="3" fill="var(--color-0)" />
			<rect width="1" height="1" x="1" y="2" fill="var(--color-0)" />
			<rect width="1" height="1" x="2" y="1" fill="var(--color-0)" />
			<rect width="1" height="1" x="3" fill="var(--color-0)" />
		</pattern>
		
		<pattern id="pat10" width="4" height="4" patternUnits="userSpaceOnUse">
			<rect width="4" height="4" fill="var(--color-1)" />
			<rect width="1" height="1" fill="var(--color-0)" />
			<rect width="1" height="1" x="1" y="1" fill="var(--color-0)" />
			<rect width="1" height="1" x="2" y="2" fill="var(--color-0)" />
			<rect width="1" height="1" x="3" y="3" fill="var(--color-0)" />
			<rect width="1" height="1" x="2" fill="var(--color-0)" />
			<rect width="1" height="1" y="2" fill="var(--color-0)" />
		</pattern>
		
		<pattern id="pat11" width="2" height="1" patternUnits="userSpaceOnUse">
			<rect width="2" height="1" fill="var(--color-1)" />
			<rect width="1" height="1" fill="var(--color-0)" />
			<rect width="1" height="1" x="2" fill="var(--color-0)" />
		</pattern>
			
		<pattern id="pat12" width="1" height="2" patternUnits="userSpaceOnUse">
			<rect width="1" height="2" fill="var(--color-1)" />
			<rect width="1" height="1" fill="var(--color-0)" />
			<rect width="1" height="1" y="2" fill="var(--color-0)" />
		</pattern>

		<pattern id="pat13" width="4" height="1" patternUnits="userSpaceOnUse">
			<rect width="4" height="1" fill="var(--color-1)" />
			<rect width="1" height="1" fill="var(--color-0)" />
			<rect width="1" height="1" x="4" fill="var(--color-0)" />
		</pattern>
		
		<pattern id="pat14" width="1" height="4" patternUnits="userSpaceOnUse">
			<rect width="1" height="4" fill="var(--color-1)" />
			<rect width="1" height="1" fill="var(--color-0)" />
			<rect width="1" height="1" y="4" fill="var(--color-0)" />
		</pattern>
		
		<pattern id="pat15" width="8" height="1" patternUnits="userSpaceOnUse">
			<rect width="8" height="1" fill="var(--color-1)" />
			<rect width="1" height="1" fill="var(--color-0)" />
			<rect width="1" height="1" x="8" fill="var(--color-0)" />
		</pattern>
		
		<pattern id="pat16" width="1" height="8" patternUnits="userSpaceOnUse">
			<rect width="1" height="8" fill="var(--color-1)" />
			<rect width="1" height="1" fill="var(--color-0)" />
			<rect width="1" height="1" y="8" fill="var(--color-0)" />
		</pattern>
		
		<pattern id="pat17" width="16" height="1" patternUnits="userSpaceOnUse">
			<rect width="16" height="1" fill="var(--color-1)" />
			<rect width="1" height="1" fill="var(--color-0)" />
		</pattern>
		
		<pattern id="pat18" width="1" height="16" patternUnits="userSpaceOnUse">
			<rect width="1" height="16" fill="var(--color-1)" />
			<rect width="1" height="1" fill="var(--color-0)" />
		</pattern>
		
		<pattern id="pat19" width="8" height="8" patternUnits="userSpaceOnUse">
			<rect width="8" height="8" fill="var(--color-1)" />
			<rect width="8" height="1" fill="var(--color-0)" />
			<rect width="1" height="8" fill="var(--color-0)" />
		</pattern>
		
		<pattern id="pat20" width="16" height="16" patternUnits="userSpaceOnUse">
			<rect width="16" height="16" fill="var(--color-1)" />
			<rect width="16" height="1" fill="var(--color-0)" />
			<rect width="1" height="16" fill="var(--color-0)" />
		</pattern>
		
		<pattern id="pat21" width="8" height="8" patternUnits="userSpaceOnUse">
			<rect width="8" height="8" fill="var(--color-0)" />
			<rect width="7" height="3" fill="var(--color-1)" />
			<rect width="3" height="3" y="4" fill="var(--color-1)" />
			<rect width="4" height="3" x="4" y="4" fill="var(--color-1)" />
		</pattern>
		
		<pattern id="pat22" width="16" height="16" patternUnits="userSpaceOnUse">
			<rect width="16" height="16" fill="var(--color-0)" />
			<rect width="15" height="7" fill="var(--color-1)" />
			<rect width="7" height="7" y="8" fill="var(--color-1)" />
			<rect width="8" height="7" x="8" y="8" fill="var(--color-1)" />
		</pattern>
		
		<pattern id="pat23" width="8" height="8" patternUnits="userSpaceOnUse">
			<rect width="8" height="8" fill="var(--color-1)" />
			<rect width="1" height="1" x="0" y="0" fill="var(--color-0)" />
			<rect width="1" height="1" x="1" y="1" fill="var(--color-0)" />
			<rect width="1" height="1" x="2" y="2" fill="var(--color-0)" />
			<rect width="1" height="1" x="3" y="3" fill="var(--color-0)" />
			<rect width="1" height="1" x="4" y="4" fill="var(--color-0)" />
			<rect width="1" height="1" x="5" y="5" fill="var(--color-0)" />
			<rect width="1" height="1" x="6" y="6" fill="var(--color-0)" />
			<rect width="1" height="1" x="7" y="7" fill="var(--color-0)" />
		</pattern>
		
		<pattern id="pat24" width="8" height="8" patternUnits="userSpaceOnUse">
			<rect width="8" height="8" fill="var(--color-1)" />
			<rect width="1" height="1" x="0" y="7" fill="var(--color-0)" />
			<rect width="1" height="1" x="1" y="6" fill="var(--color-0)" />
			<rect width="1" height="1" x="2" y="5" fill="var(--color-0)" />
			<rect width="1" height="1" x="3" y="4" fill="var(--color-0)" />
			<rect width="1" height="1" x="4" y="3" fill="var(--color-0)" />
			<rect width="1" height="1" x="5" y="2" fill="var(--color-0)" />
			<rect width="1" height="1" x="6" y="1" fill="var(--color-0)" />
			<rect width="1" height="1" x="7" y="0" fill="var(--color-0)" />
		</pattern>
		
		<pattern id="pat25" width="8" height="8" patternUnits="userSpaceOnUse">
			<rect width="8" height="8" fill="var(--color-1)" />
			<rect width="1" height="1" x="0" y="0" fill="var(--color-0)" />
			<rect width="1" height="1" x="1" y="5" fill="var(--color-0)" />
			<rect width="1" height="1" x="2" y="2" fill="var(--color-0)" />
			<rect width="1" height="1" x="3" y="7" fill="var(--color-0)" />
			<rect width="1" height="1" x="4" y="4" fill="var(--color-0)" />
			<rect width="1" height="1" x="5" y="1" fill="var(--color-0)" />
			<rect width="1" height="1" x="6" y="6" fill="var(--color-0)" />
			<rect width="1" height="1" x="7" y="3" fill="var(--color-0)" />
		</pattern>
		
		<pattern id="pat26" width="16" height="16" patternUnits="userSpaceOnUse">
			<rect width="16" height="16" fill="var(--color-1)" />
			<rect width="15" height="1" x="1" y="15" fill="var(--color-0)" />
			<rect width="1" height="15" x="15" y="1" fill="var(--color-0)" />
		</pattern>
		
		<pattern id="pat27" width="16" height="16" patternUnits="userSpaceOnUse">
			<rect width="16" height="16" fill="var(--color-1)" />
			<rect width="16" height="1" fill="var(--color-0)" />
			<rect width="1" height="16" fill="var(--color-0)" />
			<rect width="16" height="1" y="15" fill="var(--color-0)" />
			<rect width="1" height="16" x="15" fill="var(--color-0)" />
			<rect width="13" height="1" x="2" y="14" fill="var(--color-0)" />
			<rect width="1" height="13" x="14" y="2" fill="var(--color-0)" />
			<rect width="12" height="1" x="3" y="13" fill="var(--color-0)" />
			<rect width="1" height="12" x="13" y="3" fill="var(--color-0)" />
			<rect width="11" height="1" x="4" y="12" fill="var(--color-0)" />
			<rect width="1" height="11" x="12" y="4" fill="var(--color-0)" />
			<rect width="10" height="1" x="5" y="11" fill="var(--color-0)" />
			<rect width="1" height="10" x="11" y="5" fill="var(--color-0)" />
			<rect width="5" height="1" x="5" y="5" fill="var(--color-0)" />
			<rect width="1" height="5" x="5" y="5" fill="var(--color-0)" />
		</pattern>

		<pattern id="pat28" width="16" height="16" patternUnits="userSpaceOnUse">
			<ellipse cx="8" cy="9.5" rx="3.5" ry="4" stroke="var(--color-0)" fill="var(--color-1)" />
			<ellipse cx="8.5" cy="4.5" rx="4" ry="3.5" stroke="var(--color-0)" fill="var(--color-1)" />
			<line x1="7" y1="12" x2="7" y2="16" stroke="var(--color-0)" />
			<line x1="10" y1="12" x2="10" y2="16" stroke="var(--color-0)" />
		</pattern>

	</defs>

<svg x="0" y="0">
	<rect width="16" height="16" fill="url(#pat0)" />
</svg>

<svg x="16" y="0">
	<rect width="16" height="16" fill="url(#pat1)" />
</svg>

<svg x="32" y="0">
	<rect width="16" height="16" fill="url(#pat2)" />
</svg>

<svg x="48" y="0">
	<rect width="16" height="16" fill="url(#pat3)" />
</svg>

<svg x="64" y="0">
	<rect width="16" height="16" fill="url(#pat4)" />
</svg>

<svg x="80" y="0">
	<rect width="16" height="16" fill="url(#pat5)" />
</svg>

<svg x="96" y="0">
	<rect width="16" height="16" fill="url(#pat6)" />
</svg>

<svg x="112" y="0">
	<rect width="16" height="16" fill="url(#pat7)" />
</svg>

<svg x="128" y="0">
	<rect width="16" height="16" fill="url(#pat8)" />
</svg>

<svg x="144" y="0">
	<rect width="16" height="16" fill="url(#pat9)" />
</svg>

<svg x="160" y="0">
	<rect width="16" height="16" fill="url(#pat10)" />
</svg>

<svg x="176" y="0">
	<rect width="16" height="16" fill="url(#pat11)" />
</svg>

<svg x="192" y="0">
	<rect width="16" height="16" fill="url(#pat12)" />
</svg>

<svg x="208" y="0">
	<rect width="16" height="16" fill="url(#pat13)" />
</svg>

<svg x="224" y="0">
	<rect width="16" height="16" fill="url(#pat14)" />
</svg>

<svg x="240" y="0">
	<rect width="16" height="16" fill="url(#pat15)" />
</svg>

<svg x="0" y="16">
	<rect width="16" height="16" fill="url(#pat16)" />
</svg>

<svg x="16" y="16">
	<rect width="16" height="16" fill="url(#pat17)" />
</svg>

<svg x="32" y="16">
	<rect width="16" height="16" fill="url(#pat18)" />
</svg>

<svg x="48" y="16">
	<rect width="16" height="16" fill="url(#pat19)" />
</svg>

<svg x="64" y="16">
	<rect width="16" height="16" fill="url(#pat20)" />
</svg>

<svg x="80" y="16">
	<rect width="16" height="16" fill="url(#pat21)" />
</svg>

<svg x="96" y="16">
	<rect width="16" height="16" fill="url(#pat22)" />
</svg>

<svg x="112" y="16">
	<rect width="16" height="16" fill="url(#pat23)" />
</svg>

<svg x="128" y="16">
	<rect width="16" height="16" fill="url(#pat24)" />
</svg>

<svg x="144" y="16">
	<rect width="16" height="16" fill="url(#pat25)" />
</svg>

<svg x="160" y="16">
	<rect width="16" height="16" fill="url(#pat26)" />
</svg>

<svg x="176" y="16">
	<rect width="16" height="16" fill="url(#pat27)" />
</svg>

<svg x="192" y="16">
	<rect width="16" height="16" fill="url(#pat28)" />
</svg>

<svg x="208" y="16">
	<rect width="16" height="16" fill="url(#pat29)" />
</svg>

<svg x="224" y="16">
	<rect width="16" height="16" fill="url(#pat30)" />
</svg>

<svg x="240" y="16">
	<rect width="16" height="16" fill="url(#pat31)" />
</svg>

<svg x="0" y="32">
	<rect width="16" height="16" fill="url(#pat32)" />
</svg>

<svg x="16" y="32">
	<rect width="16" height="16" fill="url(#pat33)" />
</svg>

<svg x="32" y="32">
	<rect width="16" height="16" fill="url(#pat34)" />
</svg>

<svg x="48" y="32">
	<rect width="16" height="16" fill="url(#pat35)" />
</svg>

<svg x="64" y="32">
	<rect width="16" height="16" fill="url(#pat36)" />
</svg>

<svg x="80" y="32">
	<rect width="16" height="16" fill="url(#pat37)" />
</svg>

<svg x="96" y="32">
	<rect width="16" height="16" fill="url(#pat38)" />
</svg>

<svg x="112" y="32">
	<rect width="16" height="16" fill="url(#pat39)" />
</svg>

<svg x="128" y="32">
	<rect width="16" height="16" fill="url(#pat40)" />
</svg>

<svg x="144" y="32">
	<rect width="16" height="16" fill="url(#pat41)" />
</svg>

<svg x="160" y="32">
	<rect width="16" height="16" fill="url(#pat42)" />
</svg>

<svg x="176" y="32">
	<rect width="16" height="16" fill="url(#pat43)" />
</svg>

<svg x="192" y="32">
	<rect width="16" height="16" fill="url(#pat44)" />
</svg>

<svg x="208" y="32">
	<rect width="16" height="16" fill="url(#pat45)" />
</svg>

<svg x="224" y="32">
	<rect width="16" height="16" fill="url(#pat46)" />
</svg>

<svg x="240" y="32">
	<rect width="16" height="16" fill="url(#pat47)" />
</svg>

<svg x="0" y="48">
	<rect width="16" height="16" fill="url(#pat48)" />
</svg>

<svg x="16" y="48">
	<rect width="16" height="16" fill="url(#pat49)" />
</svg>

<svg x="32" y="48">
	<rect width="16" height="16" fill="url(#pat50)" />
</svg>

<svg x="48" y="48">
	<rect width="16" height="16" fill="url(#pat51)" />
</svg>

<svg x="64" y="48">
	<rect width="16" height="16" fill="url(#pat52)" />
</svg>

<svg x="80" y="48">
	<rect width="16" height="16" fill="url(#pat53)" />
</svg>

<svg x="96" y="48">
	<rect width="16" height="16" fill="url(#pat54)" />
</svg>

<svg x="112" y="48">
	<rect width="16" height="16" fill="url(#pat55)" />
</svg>

<svg x="128" y="48">
	<rect width="16" height="16" fill="url(#pat56)" />
</svg>

<svg x="144" y="48">
	<rect width="16" height="16" fill="url(#pat57)" />
</svg>

<svg x="160" y="48">
	<rect width="16" height="16" fill="url(#pat58)" />
</svg>

<svg x="176" y="48">
	<rect width="16" height="16" fill="url(#pat59)" />
</svg>

<svg x="192" y="48">
	<rect width="16" height="16" fill="url(#pat60)" />
</svg>

<svg x="208" y="48">
	<rect width="16" height="16" fill="url(#pat61)" />
</svg>

<svg x="224" y="48">
	<rect width="16" height="16" fill="url(#pat62)" />
</svg>

<svg x="240" y="48">
	<rect width="16" height="16" fill="url(#pat63)" />
</svg>

<svg x="0" y="64">
	<rect width="16" height="16" fill="url(#pat64)" />
</svg>

<svg x="16" y="64">
	<rect width="16" height="16" fill="url(#pat65)" />
</svg>

<svg x="32" y="64">
	<rect width="16" height="16" fill="url(#pat66)" />
</svg>

<svg x="48" y="64">
	<rect width="16" height="16" fill="url(#pat67)" />
</svg>

<svg x="64" y="64">
	<rect width="16" height="16" fill="url(#pat68)" />
</svg>

<svg x="80" y="64">
	<rect width="16" height="16" fill="url(#pat69)" />
</svg>

<svg x="96" y="64">
	<rect width="16" height="16" fill="url(#pat70)" />
</svg>

<svg x="112" y="64">
	<rect width="16" height="16" fill="url(#pat71)" />
</svg>

<svg x="128" y="64">
	<rect width="16" height="16" fill="url(#pat72)" />
</svg>

<svg x="144" y="64">
	<rect width="16" height="16" fill="url(#pat73)" />
</svg>

<svg x="160" y="64">
	<rect width="16" height="16" fill="url(#pat74)" />
</svg>

<svg x="176" y="64">
	<rect width="16" height="16" fill="url(#pat75)" />
</svg>

<svg x="192" y="64">
	<rect width="16" height="16" fill="url(#pat76)" />
</svg>

<svg x="208" y="64">
	<rect width="16" height="16" fill="url(#pat77)" />
</svg>

<svg x="224" y="64">
	<rect width="16" height="16" fill="url(#pat78)" />
</svg>

<svg x="240" y="64">
	<rect width="16" height="16" fill="url(#pat79)" />
</svg>

<svg x="0" y="80">
	<rect width="16" height="16" fill="url(#pat80)" />
</svg>

<svg x="16" y="80">
	<rect width="16" height="16" fill="url(#pat81)" />
</svg>

<svg x="32" y="80">
	<rect width="16" height="16" fill="url(#pat82)" />
</svg>

<svg x="48" y="80">
	<rect width="16" height="16" fill="url(#pat83)" />
</svg>

<svg x="64" y="80">
	<rect width="16" height="16" fill="url(#pat84)" />
</svg>

<svg x="80" y="80">
	<rect width="16" height="16" fill="url(#pat85)" />
</svg>

<svg x="96" y="80">
	<rect width="16" height="16" fill="url(#pat86)" />
</svg>

<svg x="112" y="80">
	<rect width="16" height="16" fill="url(#pat87)" />
</svg>

<svg x="128" y="80">
	<rect width="16" height="16" fill="url(#pat88)" />
</svg>

<svg x="144" y="80">
	<rect width="16" height="16" fill="url(#pat89)" />
</svg>

<svg x="160" y="80">
	<rect width="16" height="16" fill="url(#pat90)" />
</svg>

<svg x="176" y="80">
	<rect width="16" height="16" fill="url(#pat91)" />
</svg>

<svg x="192" y="80">
	<rect width="16" height="16" fill="url(#pat92)" />
</svg>

<svg x="208" y="80">
	<rect width="16" height="16" fill="url(#pat93)" />
</svg>

<svg x="224" y="80">
	<rect width="16" height="16" fill="url(#pat94)" />
</svg>

<svg x="240" y="80">
	<rect width="16" height="16" fill="url(#pat95)" />
</svg>

<svg x="0" y="96">
	<rect width="16" height="16" fill="url(#pat96)" />
</svg>

<svg x="16" y="96">
	<rect width="16" height="16" fill="url(#pat97)" />
</svg>

<svg x="32" y="96">
	<rect width="16" height="16" fill="url(#pat98)" />
</svg>

<svg x="48" y="96">
	<rect width="16" height="16" fill="url(#pat99)" />
</svg>

<svg x="64" y="96">
	<rect width="16" height="16" fill="url(#pat100)" />
</svg>

<svg x="80" y="96">
	<rect width="16" height="16" fill="url(#pat101)" />
</svg>

<svg x="96" y="96">
	<rect width="16" height="16" fill="url(#pat102)" />
</svg>

<svg x="112" y="96">
	<rect width="16" height="16" fill="url(#pat103)" />
</svg>

<svg x="128" y="96">
	<rect width="16" height="16" fill="url(#pat104)" />
</svg>

<svg x="144" y="96">
	<rect width="16" height="16" fill="url(#pat105)" />
</svg>

<svg x="160" y="96">
	<rect width="16" height="16" fill="url(#pat106)" />
</svg>

<svg x="176" y="96">
	<rect width="16" height="16" fill="url(#pat107)" />
</svg>

<svg x="192" y="96">
	<rect width="16" height="16" fill="url(#pat108)" />
</svg>

<svg x="208" y="96">
	<rect width="16" height="16" fill="url(#pat109)" />
</svg>

<svg x="224" y="96">
	<rect width="16" height="16" fill="url(#pat110)" />
</svg>

<svg x="240" y="96">
	<rect width="16" height="16" fill="url(#pat111)" />
</svg>

<svg x="0" y="112">
	<rect width="16" height="16" fill="url(#pat112)" />
</svg>

<svg x="16" y="112">
	<rect width="16" height="16" fill="url(#pat113)" />
</svg>

<svg x="32" y="112">
	<rect width="16" height="16" fill="url(#pat114)" />
</svg>

<svg x="48" y="112">
	<rect width="16" height="16" fill="url(#pat115)" />
</svg>

<svg x="64" y="112">
	<rect width="16" height="16" fill="url(#pat116)" />
</svg>

<svg x="80" y="112">
	<rect width="16" height="16" fill="url(#pat117)" />
</svg>

<svg x="96" y="112">
	<rect width="16" height="16" fill="url(#pat118)" />
</svg>

<svg x="112" y="112">
	<rect width="16" height="16" fill="url(#pat119)" />
</svg>

<svg x="128" y="112">
	<rect width="16" height="16" fill="url(#pat120)" />
</svg>

<svg x="144" y="112">
	<rect width="16" height="16" fill="url(#pat121)" />
</svg>

<svg x="160" y="112">
	<rect width="16" height="16" fill="url(#pat122)" />
</svg>

<svg x="176" y="112">
	<rect width="16" height="16" fill="url(#pat123)" />
</svg>

<svg x="192" y="112">
	<rect width="16" height="16" fill="url(#pat124)" />
</svg>

<svg x="208" y="112">
	<rect width="16" height="16" fill="url(#pat125)" />
</svg>

<svg x="224" y="112">
	<rect width="16" height="16" fill="url(#pat126)" />
</svg>

<svg x="240" y="112">
	<rect width="16" height="16" fill="url(#pat127)" />
</svg>

<svg x="0" y="128">
	<rect width="16" height="16" fill="url(#pat128)" />
</svg>

<svg x="16" y="128">
	<rect width="16" height="16" fill="url(#pat129)" />
</svg>

<svg x="32" y="128">
	<rect width="16" height="16" fill="url(#pat130)" />
</svg>

<svg x="48" y="128">
	<rect width="16" height="16" fill="url(#pat131)" />
</svg>

<svg x="64" y="128">
	<rect width="16" height="16" fill="url(#pat132)" />
</svg>

<svg x="80" y="128">
	<rect width="16" height="16" fill="url(#pat133)" />
</svg>

<svg x="96" y="128">
	<rect width="16" height="16" fill="url(#pat134)" />
</svg>

<svg x="112" y="128">
	<rect width="16" height="16" fill="url(#pat135)" />
</svg>

<svg x="128" y="128">
	<rect width="16" height="16" fill="url(#pat136)" />
</svg>

<svg x="144" y="128">
	<rect width="16" height="16" fill="url(#pat137)" />
</svg>

<svg x="160" y="128">
	<rect width="16" height="16" fill="url(#pat138)" />
</svg>

<svg x="176" y="128">
	<rect width="16" height="16" fill="url(#pat139)" />
</svg>

<svg x="192" y="128">
	<rect width="16" height="16" fill="url(#pat140)" />
</svg>

<svg x="208" y="128">
	<rect width="16" height="16" fill="url(#pat141)" />
</svg>

<svg x="224" y="128">
	<rect width="16" height="16" fill="url(#pat142)" />
</svg>

<svg x="240" y="128">
	<rect width="16" height="16" fill="url(#pat143)" />
</svg>

<svg x="0" y="144">
	<rect width="16" height="16" fill="url(#pat144)" />
</svg>

<svg x="16" y="144">
	<rect width="16" height="16" fill="url(#pat145)" />
</svg>

<svg x="32" y="144">
	<rect width="16" height="16" fill="url(#pat146)" />
</svg>

<svg x="48" y="144">
	<rect width="16" height="16" fill="url(#pat147)" />
</svg>

<svg x="64" y="144">
	<rect width="16" height="16" fill="url(#pat148)" />
</svg>

<svg x="80" y="144">
	<rect width="16" height="16" fill="url(#pat149)" />
</svg>

<svg x="96" y="144">
	<rect width="16" height="16" fill="url(#pat150)" />
</svg>

<svg x="112" y="144">
	<rect width="16" height="16" fill="url(#pat151)" />
</svg>

<svg x="128" y="144">
	<rect width="16" height="16" fill="url(#pat152)" />
</svg>

<svg x="144" y="144">
	<rect width="16" height="16" fill="url(#pat153)" />
</svg>

<svg x="160" y="144">
	<rect width="16" height="16" fill="url(#pat154)" />
</svg>

<svg x="176" y="144">
	<rect width="16" height="16" fill="url(#pat155)" />
</svg>

<svg x="192" y="144">
	<rect width="16" height="16" fill="url(#pat156)" />
</svg>

<svg x="208" y="144">
	<rect width="16" height="16" fill="url(#pat157)" />
</svg>

<svg x="224" y="144">
	<rect width="16" height="16" fill="url(#pat158)" />
</svg>

<svg x="240" y="144">
	<rect width="16" height="16" fill="url(#pat159)" />
</svg>

<svg x="0" y="160">
	<rect width="16" height="16" fill="url(#pat160)" />
</svg>

<svg x="16" y="160">
	<rect width="16" height="16" fill="url(#pat161)" />
</svg>

<svg x="32" y="160">
	<rect width="16" height="16" fill="url(#pat162)" />
</svg>

<svg x="48" y="160">
	<rect width="16" height="16" fill="url(#pat163)" />
</svg>

<svg x="64" y="160">
	<rect width="16" height="16" fill="url(#pat164)" />
</svg>

<svg x="80" y="160">
	<rect width="16" height="16" fill="url(#pat165)" />
</svg>

<svg x="96" y="160">
	<rect width="16" height="16" fill="url(#pat166)" />
</svg>

<svg x="112" y="160">
	<rect width="16" height="16" fill="url(#pat167)" />
</svg>

<svg x="128" y="160">
	<rect width="16" height="16" fill="url(#pat168)" />
</svg>

<svg x="144" y="160">
	<rect width="16" height="16" fill="url(#pat169)" />
</svg>

<svg x="160" y="160">
	<rect width="16" height="16" fill="url(#pat170)" />
</svg>

<svg x="176" y="160">
	<rect width="16" height="16" fill="url(#pat171)" />
</svg>

<svg x="192" y="160">
	<rect width="16" height="16" fill="url(#pat172)" />
</svg>

<svg x="208" y="160">
	<rect width="16" height="16" fill="url(#pat173)" />
</svg>

<svg x="224" y="160">
	<rect width="16" height="16" fill="url(#pat174)" />
</svg>

<svg x="240" y="160">
	<rect width="16" height="16" fill="url(#pat175)" />
</svg>

<svg x="0" y="176">
	<rect width="16" height="16" fill="url(#pat176)" />
</svg>

<svg x="16" y="176">
	<rect width="16" height="16" fill="url(#pat177)" />
</svg>

<svg x="32" y="176">
	<rect width="16" height="16" fill="url(#pat178)" />
</svg>

<svg x="48" y="176">
	<rect width="16" height="16" fill="url(#pat179)" />
</svg>

<svg x="64" y="176">
	<rect width="16" height="16" fill="url(#pat180)" />
</svg>

<svg x="80" y="176">
	<rect width="16" height="16" fill="url(#pat181)" />
</svg>

<svg x="96" y="176">
	<rect width="16" height="16" fill="url(#pat182)" />
</svg>

<svg x="112" y="176">
	<rect width="16" height="16" fill="url(#pat183)" />
</svg>

<svg x="128" y="176">
	<rect width="16" height="16" fill="url(#pat184)" />
</svg>

<svg x="144" y="176">
	<rect width="16" height="16" fill="url(#pat185)" />
</svg>

<svg x="160" y="176">
	<rect width="16" height="16" fill="url(#pat186)" />
</svg>

<svg x="176" y="176">
	<rect width="16" height="16" fill="url(#pat187)" />
</svg>

<svg x="192" y="176">
	<rect width="16" height="16" fill="url(#pat188)" />
</svg>

<svg x="208" y="176">
	<rect width="16" height="16" fill="url(#pat189)" />
</svg>

<svg x="224" y="176">
	<rect width="16" height="16" fill="url(#pat190)" />
</svg>

<svg x="240" y="176">
	<rect width="16" height="16" fill="url(#pat191)" />
</svg>

<svg x="0" y="192">
	<rect width="16" height="16" fill="url(#pat192)" />
</svg>

<svg x="16" y="192">
	<rect width="16" height="16" fill="url(#pat193)" />
</svg>

<svg x="32" y="192">
	<rect width="16" height="16" fill="url(#pat194)" />
</svg>

<svg x="48" y="192">
	<rect width="16" height="16" fill="url(#pat195)" />
</svg>

<svg x="64" y="192">
	<rect width="16" height="16" fill="url(#pat196)" />
</svg>

<svg x="80" y="192">
	<rect width="16" height="16" fill="url(#pat197)" />
</svg>

<svg x="96" y="192">
	<rect width="16" height="16" fill="url(#pat198)" />
</svg>

<svg x="112" y="192">
	<rect width="16" height="16" fill="url(#pat199)" />
</svg>

<svg x="128" y="192">
	<rect width="16" height="16" fill="url(#pat200)" />
</svg>

<svg x="144" y="192">
	<rect width="16" height="16" fill="url(#pat201)" />
</svg>

<svg x="160" y="192">
	<rect width="16" height="16" fill="url(#pat202)" />
</svg>

<svg x="176" y="192">
	<rect width="16" height="16" fill="url(#pat203)" />
</svg>

<svg x="192" y="192">
	<rect width="16" height="16" fill="url(#pat204)" />
</svg>

<svg x="208" y="192">
	<rect width="16" height="16" fill="url(#pat205)" />
</svg>

<svg x="224" y="192">
	<rect width="16" height="16" fill="url(#pat206)" />
</svg>

<svg x="240" y="192">
	<rect width="16" height="16" fill="url(#pat207)" />
</svg>

<svg x="0" y="208">
	<rect width="16" height="16" fill="url(#pat208)" />
</svg>

<svg x="16" y="208">
	<rect width="16" height="16" fill="url(#pat209)" />
</svg>

<svg x="32" y="208">
	<rect width="16" height="16" fill="url(#pat210)" />
</svg>

<svg x="48" y="208">
	<rect width="16" height="16" fill="url(#pat211)" />
</svg>

<svg x="64" y="208">
	<rect width="16" height="16" fill="url(#pat212)" />
</svg>

<svg x="80" y="208">
	<rect width="16" height="16" fill="url(#pat213)" />
</svg>

<svg x="96" y="208">
	<rect width="16" height="16" fill="url(#pat214)" />
</svg>

<svg x="112" y="208">
	<rect width="16" height="16" fill="url(#pat215)" />
</svg>

<svg x="128" y="208">
	<rect width="16" height="16" fill="url(#pat216)" />
</svg>

<svg x="144" y="208">
	<rect width="16" height="16" fill="url(#pat217)" />
</svg>

<svg x="160" y="208">
	<rect width="16" height="16" fill="url(#pat218)" />
</svg>

<svg x="176" y="208">
	<rect width="16" height="16" fill="url(#pat219)" />
</svg>

<svg x="192" y="208">
	<rect width="16" height="16" fill="url(#pat220)" />
</svg>

<svg x="208" y="208">
	<rect width="16" height="16" fill="url(#pat221)" />
</svg>

<svg x="224" y="208">
	<rect width="16" height="16" fill="url(#pat222)" />
</svg>

<svg x="240" y="208">
	<rect width="16" height="16" fill="url(#pat223)" />
</svg>

<svg x="0" y="224">
	<rect width="16" height="16" fill="url(#pat224)" />
</svg>

<svg x="16" y="224">
	<rect width="16" height="16" fill="url(#pat225)" />
</svg>

<svg x="32" y="224">
	<rect width="16" height="16" fill="url(#pat226)" />
</svg>

<svg x="48" y="224">
	<rect width="16" height="16" fill="url(#pat227)" />
</svg>

<svg x="64" y="224">
	<rect width="16" height="16" fill="url(#pat228)" />
</svg>

<svg x="80" y="224">
	<rect width="16" height="16" fill="url(#pat229)" />
</svg>

<svg x="96" y="224">
	<rect width="16" height="16" fill="url(#pat230)" />
</svg>

<svg x="112" y="224">
	<rect width="16" height="16" fill="url(#pat231)" />
</svg>

<svg x="128" y="224">
	<rect width="16" height="16" fill="url(#pat232)" />
</svg>

<svg x="144" y="224">
	<rect width="16" height="16" fill="url(#pat233)" />
</svg>

<svg x="160" y="224">
	<rect width="16" height="16" fill="url(#pat234)" />
</svg>

<svg x="176" y="224">
	<rect width="16" height="16" fill="url(#pat235)" />
</svg>

<svg x="192" y="224">
	<rect width="16" height="16" fill="url(#pat236)" />
</svg>

<svg x="208" y="224">
	<rect width="16" height="16" fill="url(#pat237)" />
</svg>

<svg x="224" y="224">
	<rect width="16" height="16" fill="url(#pat238)" />
</svg>

<svg x="240" y="224">
	<rect width="16" height="16" fill="url(#pat239)" />
</svg>

<svg x="0" y="240">
	<rect width="16" height="16" fill="url(#pat240)" />
</svg>

<svg x="16" y="240">
	<rect width="16" height="16" fill="url(#pat241)" />
</svg>

<svg x="32" y="240">
	<rect width="16" height="16" fill="url(#pat242)" />
</svg>

<svg x="48" y="240">
	<rect width="16" height="16" fill="url(#pat243)" />
</svg>

<svg x="64" y="240">
	<rect width="16" height="16" fill="url(#pat244)" />
</svg>

<svg x="80" y="240">
	<rect width="16" height="16" fill="url(#pat245)" />
</svg>

<svg x="96" y="240">
	<rect width="16" height="16" fill="url(#pat246)" />
</svg>

<svg x="112" y="240">
	<rect width="16" height="16" fill="url(#pat247)" />
</svg>

<svg x="128" y="240">
	<rect width="16" height="16" fill="url(#pat248)" />
</svg>

<svg x="144" y="240">
	<rect width="16" height="16" fill="url(#pat249)" />
</svg>

<svg x="160" y="240">
	<rect width="16" height="16" fill="url(#pat250)" />
</svg>

<svg x="176" y="240">
	<rect width="16" height="16" fill="url(#pat251)" />
</svg>

<svg x="192" y="240">
	<rect width="16" height="16" fill="url(#pat252)" />
</svg>

<svg x="208" y="240">
	<rect width="16" height="16" fill="url(#pat253)" />
</svg>

<svg x="224" y="240">
	<rect width="16" height="16" fill="url(#pat254)" />
</svg>

<svg x="240" y="240">
	<rect width="16" height="16" fill="url(#pat255)" />
</svg>

</svg>

